<mxfile host="app.diagrams.net" modified="2022-01-14T01:16:24.303Z" agent="5.0 (Macintosh; Intel Mac OS X 10_16_0) AppleWebKit/537.36 (KHTML, like Gecko) Chrome/80.0.3987.163 Safari/537.36" etag="kwaOqjJg-BgycKeu05NF" version="16.2.6" type="github">
  <diagram id="dAGm9d05bVq563Y25KDQ" name="第 1 页">
    <mxGraphModel dx="2600" dy="600" grid="1" gridSize="10" guides="1" tooltips="1" connect="1" arrows="1" fold="1" page="1" pageScale="1" pageWidth="827" pageHeight="1169" math="0" shadow="0">
      <root>
        <mxCell id="0" />
        <mxCell id="1" parent="0" />
        <mxCell id="HFMOyKSnLn-s5Kh4_8ME-10" style="edgeStyle=orthogonalEdgeStyle;rounded=0;orthogonalLoop=1;jettySize=auto;html=1;exitX=1;exitY=0.5;exitDx=0;exitDy=0;" edge="1" parent="1" source="HFMOyKSnLn-s5Kh4_8ME-1" target="HFMOyKSnLn-s5Kh4_8ME-9">
          <mxGeometry relative="1" as="geometry" />
        </mxCell>
        <mxCell id="HFMOyKSnLn-s5Kh4_8ME-1" value="Spring会解析@Configuration注解" style="shape=parallelogram;perimeter=parallelogramPerimeter;whiteSpace=wrap;html=1;fixedSize=1;" vertex="1" parent="1">
          <mxGeometry x="100" y="472.5" width="210" height="50" as="geometry" />
        </mxCell>
        <mxCell id="HFMOyKSnLn-s5Kh4_8ME-2" style="edgeStyle=orthogonalEdgeStyle;rounded=0;orthogonalLoop=1;jettySize=auto;html=1;exitX=0.5;exitY=1;exitDx=0;exitDy=0;" edge="1" parent="1" source="HFMOyKSnLn-s5Kh4_8ME-1" target="HFMOyKSnLn-s5Kh4_8ME-1">
          <mxGeometry relative="1" as="geometry" />
        </mxCell>
        <mxCell id="HFMOyKSnLn-s5Kh4_8ME-3" style="edgeStyle=orthogonalEdgeStyle;rounded=0;orthogonalLoop=1;jettySize=auto;html=1;exitX=1;exitY=0.5;exitDx=0;exitDy=0;fontColor=#000000;" edge="1" parent="1" source="HFMOyKSnLn-s5Kh4_8ME-4" target="HFMOyKSnLn-s5Kh4_8ME-8">
          <mxGeometry relative="1" as="geometry" />
        </mxCell>
        <mxCell id="HFMOyKSnLn-s5Kh4_8ME-4" value="&lt;font color=&quot;#000000&quot;&gt;refresh()&lt;/font&gt;" style="rounded=1;whiteSpace=wrap;html=1;fontColor=#FF0080;" vertex="1" parent="1">
          <mxGeometry x="-570" y="477.5" width="120" height="40" as="geometry" />
        </mxCell>
        <mxCell id="HFMOyKSnLn-s5Kh4_8ME-5" style="edgeStyle=orthogonalEdgeStyle;rounded=0;orthogonalLoop=1;jettySize=auto;html=1;exitX=1;exitY=0.5;exitDx=0;exitDy=0;fontColor=#000000;" edge="1" parent="1" source="HFMOyKSnLn-s5Kh4_8ME-6" target="HFMOyKSnLn-s5Kh4_8ME-4">
          <mxGeometry relative="1" as="geometry" />
        </mxCell>
        <mxCell id="HFMOyKSnLn-s5Kh4_8ME-6" value="&lt;font color=&quot;#000000&quot;&gt;AnnotationConfigApplicationContext&lt;/font&gt;" style="rounded=1;whiteSpace=wrap;html=1;fontColor=#FF0080;" vertex="1" parent="1">
          <mxGeometry x="-1080" y="477.5" width="380" height="40" as="geometry" />
        </mxCell>
        <mxCell id="HFMOyKSnLn-s5Kh4_8ME-7" style="edgeStyle=orthogonalEdgeStyle;rounded=0;orthogonalLoop=1;jettySize=auto;html=1;exitX=1;exitY=0.5;exitDx=0;exitDy=0;fontColor=#000000;" edge="1" parent="1" source="HFMOyKSnLn-s5Kh4_8ME-8" target="HFMOyKSnLn-s5Kh4_8ME-1">
          <mxGeometry relative="1" as="geometry" />
        </mxCell>
        <mxCell id="HFMOyKSnLn-s5Kh4_8ME-8" value="&lt;font color=&quot;#000000&quot;&gt;this.invokeBeanFactoryPostProcessors(beanFactory);&lt;/font&gt;" style="rounded=1;whiteSpace=wrap;html=1;fontColor=#FF0080;" vertex="1" parent="1">
          <mxGeometry x="-310" y="477.5" width="300" height="40" as="geometry" />
        </mxCell>
        <mxCell id="HFMOyKSnLn-s5Kh4_8ME-16" style="edgeStyle=orthogonalEdgeStyle;rounded=0;orthogonalLoop=1;jettySize=auto;html=1;exitX=1;exitY=0.5;exitDx=0;exitDy=0;" edge="1" parent="1" source="HFMOyKSnLn-s5Kh4_8ME-9" target="HFMOyKSnLn-s5Kh4_8ME-15">
          <mxGeometry relative="1" as="geometry" />
        </mxCell>
        <mxCell id="HFMOyKSnLn-s5Kh4_8ME-9" value="&lt;font color=&quot;#000000&quot;&gt;@DubboComponentScan&lt;/font&gt;" style="rounded=1;whiteSpace=wrap;html=1;fontColor=#FF0080;" vertex="1" parent="1">
          <mxGeometry x="370" y="481.25" width="210" height="32.5" as="geometry" />
        </mxCell>
        <mxCell id="HFMOyKSnLn-s5Kh4_8ME-11" style="edgeStyle=orthogonalEdgeStyle;rounded=0;orthogonalLoop=1;jettySize=auto;html=1;exitX=0.5;exitY=1;exitDx=0;exitDy=0;entryX=0.5;entryY=0;entryDx=0;entryDy=0;" edge="1" parent="1" source="HFMOyKSnLn-s5Kh4_8ME-12" target="HFMOyKSnLn-s5Kh4_8ME-13">
          <mxGeometry relative="1" as="geometry">
            <mxPoint x="361.5" y="470" as="sourcePoint" />
            <mxPoint x="481.5" y="465" as="targetPoint" />
          </mxGeometry>
        </mxCell>
        <mxCell id="HFMOyKSnLn-s5Kh4_8ME-12" value="@EnableDubbo(scanBasePackages = &quot;org.apache.dubbo.demo.provider&quot;)" style="rounded=1;whiteSpace=wrap;html=1;" vertex="1" parent="1">
          <mxGeometry x="370" y="280" width="210" height="50" as="geometry" />
        </mxCell>
        <mxCell id="HFMOyKSnLn-s5Kh4_8ME-14" style="edgeStyle=orthogonalEdgeStyle;rounded=0;orthogonalLoop=1;jettySize=auto;html=1;exitX=0.5;exitY=1;exitDx=0;exitDy=0;" edge="1" parent="1" source="HFMOyKSnLn-s5Kh4_8ME-13" target="HFMOyKSnLn-s5Kh4_8ME-9">
          <mxGeometry relative="1" as="geometry" />
        </mxCell>
        <mxCell id="HFMOyKSnLn-s5Kh4_8ME-13" value="解析dubbo配置文件&lt;br&gt;@EnableDubboConfig" style="rounded=1;whiteSpace=wrap;html=1;" vertex="1" parent="1">
          <mxGeometry x="396.5" y="390" width="157" height="40" as="geometry" />
        </mxCell>
        <mxCell id="HFMOyKSnLn-s5Kh4_8ME-18" style="edgeStyle=orthogonalEdgeStyle;rounded=0;orthogonalLoop=1;jettySize=auto;html=1;exitX=1;exitY=0.5;exitDx=0;exitDy=0;entryX=0;entryY=0.5;entryDx=0;entryDy=0;" edge="1" parent="1" source="HFMOyKSnLn-s5Kh4_8ME-15" target="HFMOyKSnLn-s5Kh4_8ME-17">
          <mxGeometry relative="1" as="geometry" />
        </mxCell>
        <mxCell id="HFMOyKSnLn-s5Kh4_8ME-15" value="&lt;font color=&quot;#000000&quot;&gt;@Import(DubboComponentScanRegistrar.class)&lt;/font&gt;" style="rounded=1;whiteSpace=wrap;html=1;fontColor=#FF0080;" vertex="1" parent="1">
          <mxGeometry x="650" y="480" width="300" height="33.75" as="geometry" />
        </mxCell>
        <mxCell id="HFMOyKSnLn-s5Kh4_8ME-20" style="edgeStyle=orthogonalEdgeStyle;rounded=0;orthogonalLoop=1;jettySize=auto;html=1;exitX=1;exitY=0.5;exitDx=0;exitDy=0;entryX=0;entryY=0.5;entryDx=0;entryDy=0;fontColor=#000000;" edge="1" parent="1" source="HFMOyKSnLn-s5Kh4_8ME-17" target="HFMOyKSnLn-s5Kh4_8ME-19">
          <mxGeometry relative="1" as="geometry" />
        </mxCell>
        <mxCell id="HFMOyKSnLn-s5Kh4_8ME-22" style="edgeStyle=orthogonalEdgeStyle;rounded=0;orthogonalLoop=1;jettySize=auto;html=1;exitX=1;exitY=0.5;exitDx=0;exitDy=0;fontColor=#000000;entryX=0;entryY=0.5;entryDx=0;entryDy=0;" edge="1" parent="1" source="HFMOyKSnLn-s5Kh4_8ME-17" target="HFMOyKSnLn-s5Kh4_8ME-21">
          <mxGeometry relative="1" as="geometry" />
        </mxCell>
        <mxCell id="HFMOyKSnLn-s5Kh4_8ME-26" style="edgeStyle=orthogonalEdgeStyle;rounded=0;orthogonalLoop=1;jettySize=auto;html=1;exitX=1;exitY=0.5;exitDx=0;exitDy=0;entryX=0;entryY=0.5;entryDx=0;entryDy=0;fontColor=#000000;" edge="1" parent="1" source="HFMOyKSnLn-s5Kh4_8ME-17" target="HFMOyKSnLn-s5Kh4_8ME-23">
          <mxGeometry relative="1" as="geometry" />
        </mxCell>
        <mxCell id="HFMOyKSnLn-s5Kh4_8ME-27" style="edgeStyle=orthogonalEdgeStyle;rounded=0;orthogonalLoop=1;jettySize=auto;html=1;exitX=1;exitY=0.5;exitDx=0;exitDy=0;entryX=0;entryY=0.5;entryDx=0;entryDy=0;fontColor=#000000;" edge="1" parent="1" source="HFMOyKSnLn-s5Kh4_8ME-17" target="HFMOyKSnLn-s5Kh4_8ME-24">
          <mxGeometry relative="1" as="geometry" />
        </mxCell>
        <mxCell id="HFMOyKSnLn-s5Kh4_8ME-28" style="edgeStyle=orthogonalEdgeStyle;rounded=0;orthogonalLoop=1;jettySize=auto;html=1;exitX=1;exitY=0.5;exitDx=0;exitDy=0;fontColor=#000000;" edge="1" parent="1" source="HFMOyKSnLn-s5Kh4_8ME-17" target="HFMOyKSnLn-s5Kh4_8ME-25">
          <mxGeometry relative="1" as="geometry" />
        </mxCell>
        <mxCell id="HFMOyKSnLn-s5Kh4_8ME-30" style="edgeStyle=orthogonalEdgeStyle;rounded=0;orthogonalLoop=1;jettySize=auto;html=1;exitX=1;exitY=0.5;exitDx=0;exitDy=0;entryX=0;entryY=0.5;entryDx=0;entryDy=0;fontColor=#000000;" edge="1" parent="1" source="HFMOyKSnLn-s5Kh4_8ME-17" target="HFMOyKSnLn-s5Kh4_8ME-29">
          <mxGeometry relative="1" as="geometry" />
        </mxCell>
        <mxCell id="HFMOyKSnLn-s5Kh4_8ME-17" value="&lt;font color=&quot;#000000&quot;&gt;拿到DubboComponentScan注解所定义的包路径&lt;br&gt;Set&amp;lt;String&amp;gt; packagesToScan = getPackagesToScan(importingClassMetadata);&lt;/font&gt;" style="rounded=1;whiteSpace=wrap;html=1;fontColor=#FF0080;" vertex="1" parent="1">
          <mxGeometry x="1040" y="350" width="330" height="53.75" as="geometry" />
        </mxCell>
        <mxCell id="HFMOyKSnLn-s5Kh4_8ME-19" value="&lt;div&gt;&lt;/div&gt;&lt;span style=&quot;color: rgb(0 , 0 , 0)&quot;&gt;获取DubboComponentScan注解中的属性值&lt;/span&gt;&lt;div&gt;&lt;font color=&quot;#000000&quot;&gt;AnnotationAttributes attributes = AnnotationAttributes.fromMap(&lt;/font&gt;&lt;span style=&quot;color: rgb(0 , 0 , 0)&quot;&gt;&amp;nbsp; &amp;nbsp; &amp;nbsp; &amp;nbsp; &amp;nbsp; &amp;nbsp;metadata.getAnnotationAttributes(DubboComponentScan.class.getName()));&lt;/span&gt;&lt;/div&gt;" style="rounded=1;whiteSpace=wrap;html=1;fontColor=#FF0080;" vertex="1" parent="1">
          <mxGeometry x="1510" y="30" width="460" height="63.75" as="geometry" />
        </mxCell>
        <mxCell id="HFMOyKSnLn-s5Kh4_8ME-21" value="&lt;div&gt;&lt;/div&gt;&lt;font color=&quot;#000000&quot;&gt;String[] basePackages = attributes.getStringArray(&quot;basePackages&quot;);&lt;/font&gt;" style="rounded=1;whiteSpace=wrap;html=1;fontColor=#FF0080;" vertex="1" parent="1">
          <mxGeometry x="1510" y="130" width="460" height="40" as="geometry" />
        </mxCell>
        <mxCell id="HFMOyKSnLn-s5Kh4_8ME-23" value="&lt;div&gt;&lt;/div&gt;&lt;font color=&quot;#000000&quot;&gt;Class&amp;lt;?&amp;gt;[] basePackageClasses = attributes.getClassArray(&quot;basePackageClasses&quot;);&lt;/font&gt;" style="rounded=1;whiteSpace=wrap;html=1;fontColor=#FF0080;" vertex="1" parent="1">
          <mxGeometry x="1510" y="210" width="460" height="40" as="geometry" />
        </mxCell>
        <mxCell id="HFMOyKSnLn-s5Kh4_8ME-24" value="&lt;div&gt;&lt;/div&gt;&lt;font color=&quot;#000000&quot;&gt;String[] value = attributes.getStringArray(&quot;value&quot;);&lt;/font&gt;" style="rounded=1;whiteSpace=wrap;html=1;fontColor=#FF0080;" vertex="1" parent="1">
          <mxGeometry x="1510" y="290" width="460" height="40" as="geometry" />
        </mxCell>
        <mxCell id="HFMOyKSnLn-s5Kh4_8ME-25" value="&lt;div&gt;&lt;/div&gt;&lt;div&gt;&lt;font color=&quot;#000000&quot;&gt;Set&amp;lt;String&amp;gt; packagesToScan = new LinkedHashSet&amp;lt;String&amp;gt;(Arrays.asList(value));&lt;/font&gt;&lt;/div&gt;" style="rounded=1;whiteSpace=wrap;html=1;fontColor=#FF0080;" vertex="1" parent="1">
          <mxGeometry x="1510" y="360" width="460" height="40" as="geometry" />
        </mxCell>
        <mxCell id="HFMOyKSnLn-s5Kh4_8ME-29" value="&lt;div&gt;&lt;/div&gt;&lt;div&gt;&lt;span style=&quot;color: rgb(0 , 0 , 0)&quot;&gt;&amp;nbsp; &amp;nbsp; &amp;nbsp; &amp;nbsp; packagesToScan.addAll(Arrays.asList(basePackages));&lt;/span&gt;&lt;br&gt;&lt;/div&gt;" style="rounded=1;whiteSpace=wrap;html=1;fontColor=#FF0080;" vertex="1" parent="1">
          <mxGeometry x="1510" y="437.5" width="460" height="40" as="geometry" />
        </mxCell>
        <mxCell id="HFMOyKSnLn-s5Kh4_8ME-31" value="&lt;span style=&quot;color: rgba(0 , 0 , 0 , 0) ; font-family: monospace ; font-size: 0px&quot;&gt;%3CmxGraphModel%3E%3Croot%3E%3CmxCell%20id%3D%220%22%2F%3E%3CmxCell%20id%3D%221%22%20parent%3D%220%22%2F%3E%3CmxCell%20id%3D%222%22%20value%3D%22%26lt%3Bfont%20color%3D%26quot%3B%23000000%26quot%3B%26gt%3B%E6%8B%BF%E5%88%B0DubboComponentScan%E6%B3%A8%E8%A7%A3%E6%89%80%E5%AE%9A%E4%B9%89%E7%9A%84%E5%8C%85%E8%B7%AF%E5%BE%84%26lt%3Bbr%26gt%3BSet%26amp%3Blt%3BString%26amp%3Bgt%3B%20packagesToScan%20%3D%20getPackagesToScan(importingClassMetadata)%3B%26lt%3B%2Ffont%26gt%3B%22%20style%3D%22rounded%3D1%3BwhiteSpace%3Dwrap%3Bhtml%3D1%3BfontColor%3D%23FF0080%3B%22%20vertex%3D%221%22%20parent%3D%221%22%3E%3CmxGeometry%20x%3D%221040%22%20y%3D%22350%22%20width%3D%22330%22%20height%3D%2253.75%22%20as%3D%22geometry%22%2F%3E%3C%2FmxCell%3E%3C%2Froot%3E%3C%2FmxGraphModel%3E&lt;/span&gt;" style="rounded=1;whiteSpace=wrap;html=1;fontColor=#FF0080;" vertex="1" parent="1">
          <mxGeometry x="1050" y="550" width="330" height="53.75" as="geometry" />
        </mxCell>
      </root>
    </mxGraphModel>
  </diagram>
</mxfile>
